<?xml version="1.0" standalone="no"?>
<!DOCTYPE svg PUBLIC "-//W3C//DTD SVG 20010904//EN"
 "http://www.w3.org/TR/2001/REC-SVG-20010904/DTD/svg10.dtd">
<svg version="1.0" xmlns="http://www.w3.org/2000/svg"
 width="500.000000pt" height="500.000000pt" viewBox="0 0 500.000000 500.000000"
 preserveAspectRatio="xMidYMid meet">
<metadata>
Created by potrace 1.11, written by Peter Selinger 2001-2013
</metadata>
<g transform="translate(0.000000,500.000000) scale(0.100000,-0.100000)"
fill="#000000" stroke="none">
<path d="M2013 3160 c-56 -12 -92 -32 -130 -72 -43 -45 -54 -77 -60 -185 l-6
-93 -128 0 -129 0 0 48 c1 66 16 124 37 140 12 9 35 12 66 9 l47 -4 0 62 c0
73 -2 75 -114 75 -91 0 -144 -24 -176 -82 -19 -34 -24 -61 -28 -145 l-5 -103
-58 0 -59 0 0 -65 0 -65 60 0 60 0 0 -420 0 -420 85 0 85 0 2 418 3 417 128 3
127 3 0 -421 0 -420 90 0 90 0 0 420 0 420 70 0 70 0 0 65 0 65 -70 0 -70 0 0
64 c0 81 15 123 51 141 39 20 108 29 163 21 l46 -7 0 -595 0 -594 85 0 85 0
-2 648 -3 647 -70 12 c-94 17 -290 24 -342 13z"/>
<path d="M2700 3045 l0 -95 90 0 90 0 0 95 0 95 -90 0 -90 0 0 -95z"/>
<path d="M712 2802 c-134 -48 -172 -156 -172 -480 1 -261 25 -369 96 -432 74
-65 234 -78 331 -28 56 28 96 87 118 169 21 76 21 512 0 588 -35 134 -107 192
-243 198 -57 3 -91 -1 -130 -15z m152 -122 c14 -5 33 -24 43 -42 16 -30 18
-62 18 -313 0 -264 -1 -282 -20 -315 -38 -64 -121 -65 -162 -3 -16 24 -18 56
-21 273 -4 300 0 344 38 382 30 29 61 35 104 18z"/>
<path d="M3470 2811 c-36 -11 -90 -40 -127 -69 l-33 -24 0 46 0 46 -90 0 -90
0 0 -485 0 -485 90 0 90 0 0 393 0 392 37 24 c51 33 102 38 133 13 l25 -20 3
-401 3 -401 90 0 90 0 -3 428 c-3 416 -4 428 -25 475 -17 35 -31 51 -57 62
-38 16 -95 18 -136 6z"/>
<path d="M4105 2811 c-150 -39 -194 -148 -195 -478 0 -182 12 -305 36 -363 34
-80 109 -128 214 -137 128 -11 221 30 265 117 25 50 51 189 41 216 -4 12 -24
14 -88 12 l-83 -3 -5 -84 c-5 -75 -9 -86 -33 -107 -49 -42 -119 -25 -149 36
-14 28 -18 61 -18 168 l0 132 190 0 190 0 0 68 c-1 174 -30 312 -78 365 -35
39 -93 59 -177 63 -44 2 -93 0 -110 -5z m159 -150 c18 -18 21 -36 24 -131 l4
-110 -101 0 -101 0 0 78 c0 97 13 145 48 172 33 27 94 22 126 -9z"/>
<path d="M2700 2325 l0 -485 90 0 90 0 0 485 0 485 -90 0 -90 0 0 -485z"/>
</g>
</svg>
